# Blender 3.1.0
# www.blender.org
mtllib floppy.mtl
o Plane.001
v -0.039614 0.104634 -0.001149
v 0.039598 0.104634 -0.001149
v -0.039614 0.153881 -0.001149
v 0.039396 0.153881 -0.001149
v -0.039614 0.104634 0.004571
v 0.039598 0.104634 0.004571
v -0.039614 0.153881 0.004571
v 0.039396 0.153881 0.004571
v 0.007270 0.147421 -0.001149
v 0.027419 0.147467 -0.001149
v 0.007234 0.108607 -0.001149
v 0.027419 0.108841 -0.001149
v 0.007234 0.108607 0.004571
v 0.027419 0.108841 0.004571
v 0.007270 0.147421 0.004571
v 0.027419 0.147467 0.004571
v -0.058059 0.103194 0.002868
v -0.072058 0.154113 0.000000
v -0.057896 0.089092 0.002812
v 0.040629 0.103025 0.002868
v 0.071649 0.150205 0.000000
v 0.060229 0.088800 0.002812
v -0.070974 0.001072 -0.000000
v 0.075115 0.001122 -0.000000
v -0.072058 0.154113 0.005438
v 0.071649 0.150205 0.005438
v -0.070974 0.001072 0.005438
v 0.075115 0.001122 0.005438
v 0.067686 0.154358 0.000000
v 0.067913 0.001119 -0.000000
v 0.061709 0.001107 -0.000000
v 0.067686 0.154358 0.005438
v 0.067913 0.001119 0.005438
v 0.061709 0.001107 0.005438
v -0.071636 0.094515 0.000000
v -0.071997 0.145529 0.000000
v 0.075540 0.146329 0.000000
v 0.075235 0.094896 0.000000
v -0.071636 0.094515 0.005438
v -0.071997 0.145529 0.005438
v 0.075540 0.146329 0.005438
v 0.075235 0.094896 0.005438
v 0.046699 0.094687 0.005438
v 0.046530 0.145782 0.005438
v 0.061596 0.094782 0.005438
v 0.061533 0.145922 0.005438
v 0.067995 0.094877 0.005438
v 0.068040 0.146062 0.005438
v 0.046530 0.145782 0.000000
v 0.046699 0.094687 0.000000
v 0.061533 0.145922 0.000000
v 0.061596 0.094782 0.000000
v 0.068040 0.146062 0.000000
v 0.067995 0.094877 0.000000
v -0.058719 0.001075 -0.000000
v -0.058719 0.001075 0.005438
v 0.060999 0.001106 -0.000000
v 0.060999 0.001106 0.005438
v 0.060464 0.002945 0.005438
v 0.047002 0.002925 -0.000000
v -0.057725 0.002774 -0.000000
v 0.060464 0.002945 -0.000000
v -0.060360 0.154139 0.000000
v -0.060360 0.154139 0.005438
v 0.061776 0.154343 0.000000
v 0.061776 0.154343 0.005438
v 0.061521 0.154043 0.000000
v 0.060711 0.153088 0.000000
v 0.046673 0.153032 0.000000
v 0.046506 0.152873 0.000000
v -0.017604 0.151919 0.000000
v 0.029065 0.150492 0.000000
v 0.044258 0.150722 0.000000
v -0.058650 0.152661 0.000000
v 0.061521 0.154043 0.005438
v 0.046673 0.153032 0.005438
v 0.046506 0.152873 0.005438
v 0.060711 0.153088 0.005438
v -0.058650 0.152661 0.005438
v 0.044258 0.150722 0.005438
v -0.068296 0.019367 0.005438
v -0.068296 0.012129 0.005438
v -0.061058 0.012129 0.005438
v -0.061058 0.019367 0.005438
v -0.068296 0.019367 -0.000000
v -0.068296 0.012129 -0.000000
v -0.061058 0.012129 -0.000000
v -0.061058 0.019367 -0.000000
v 0.071365 0.013451 -0.000000
v 0.071365 0.020690 -0.000000
v 0.067931 0.020690 -0.000000
v 0.067924 0.013451 -0.000000
v 0.071365 0.013451 0.005438
v 0.071365 0.020690 0.005438
v 0.067931 0.020690 0.005438
v 0.067924 0.013451 0.005438
v 0.064126 0.020690 0.005438
v 0.064126 0.013451 0.005438
v 0.064126 0.020690 -0.000000
v 0.064126 0.013451 -0.000000
v -0.058265 0.152654 0.005438
v 0.040933 0.150672 0.005438
v 0.040902 0.145770 0.005438
v -0.058236 0.145558 0.005438
v -0.058059 0.103194 0.005438
v 0.040629 0.103025 0.005438
v -0.017604 0.151919 0.002868
v -0.058265 0.152654 0.002868
v 0.029065 0.150492 0.002868
v 0.040933 0.150672 0.002868
v -0.058441 0.001549 0.005438
v 0.046718 0.088834 0.005438
v -0.057896 0.089092 0.005438
v 0.060229 0.088800 0.005438
v 0.059766 0.002944 0.005438
v -0.058441 0.001549 0.002812
v -0.057725 0.002774 0.002812
v 0.059766 0.002944 0.002812
vn -0.0000 -0.0000 -0.0521
vn -0.0000 -0.0000 0.0521
vn 0.0521 0.0002 -0.0000
vn -0.0521 -0.0000 -0.0000
vn -0.0000 0.0521 -0.0000
vn -0.0000 -0.0521 -0.0000
vn -0.0006 0.0521 -0.0000
vn 0.0521 -0.0000 -0.0000
vn 0.0001 -0.0521 -0.0000
vn -0.0521 -0.0004 -0.0000
vn -0.0001 0.0521 -0.0000
vn 0.0367 0.0369 -0.0000
vn 0.0377 0.0359 -0.0000
vn 0.0521 -0.0001 -0.0000
vn 0.0521 -0.0003 -0.0000
vn -0.0500 -0.0145 -0.0000
vn 0.0449 -0.0263 -0.0000
vn 0.0009 0.0520 -0.0000
vn -0.0360 0.0376 -0.0000
vn 0.0016 0.0520 -0.0000
vn -0.0002 0.0521 -0.0000
vn -0.0008 0.0521 -0.0000
vn 0.0340 0.0394 -0.0000
vn -0.0397 0.0337 -0.0000
vn 0.0001 0.0521 -0.0000
vn -0.0521 0.0003 -0.0000
vn -0.0001 -0.0521 -0.0000
vt 0.000000 0.000000
vt 1.000000 0.000000
vt 0.000000 1.000000
vt 1.000000 1.000000
vt 0.000000 0.000000
vt 1.000000 0.000000
vt 0.000000 1.000000
vt 1.000000 1.000000
vt 0.593208 0.868822
vt 0.000000 1.000000
vt 0.848161 0.869747
vt 1.000000 1.000000
vt 0.591547 0.080682
vt 0.000000 0.000000
vt 0.846411 0.085440
vt 1.000000 0.000000
vt 0.591547 0.080682
vt 0.000000 0.000000
vt 0.846411 0.085440
vt 1.000000 0.000000
vt 0.593208 0.868822
vt 0.000000 1.000000
vt 0.848161 0.869747
vt 1.000000 1.000000
vt 0.000000 0.000000
vt 0.000000 0.000000
vt 0.000000 1.000000
vt 1.000000 0.000000
vt 1.000000 0.000000
vt 1.000000 1.000000
vt 0.000000 1.000000
vt 1.000000 1.000000
vt 0.000000 0.000000
vt 1.000000 0.000000
vt 0.000000 1.000000
vt 1.000000 1.000000
vt 0.950704 0.000000
vt 0.950704 1.000000
vt 0.700704 1.000000
vt 0.950704 0.000000
vt 0.950704 1.000000
vt 0.700704 1.000000
vt 0.000000 0.389423
vt 0.000000 0.056090
vt 1.000000 0.056090
vt 1.000000 0.389423
vt 0.000000 0.389423
vt 0.000000 0.056090
vt 1.000000 0.056090
vt 1.000000 0.389423
vt 0.450704 0.389423
vt 0.450704 0.056090
vt 0.700704 0.389423
vt 0.700704 0.056090
vt 0.950704 0.389423
vt 0.950704 0.056090
vt 0.450704 0.056090
vt 0.450704 0.389423
vt 0.700704 0.056090
vt 0.700704 0.389423
vt 0.950704 0.056090
vt 0.950704 0.389423
vt 0.046814 1.000000
vt 0.000000 0.918254
vt 0.046814 1.000000
vt 0.000000 0.918254
vt 0.688625 1.000000
vt 1.000000 0.879878
vt 0.688625 1.000000
vt 1.000000 0.879878
vt 0.679587 0.988011
vt 1.000000 1.000000
vt 0.450704 0.988057
vt 0.886097 1.000000
vt 0.050648 0.988905
vt 0.000000 1.000000
vt 0.679587 0.988011
vt 1.000000 1.000000
vt 0.044472 0.000000
vt 0.000000 0.101941
vt 0.000000 0.101940
vt 0.044472 0.000000
vt 0.711045 0.000000
vt 0.934734 0.000000
vt 0.711044 0.000000
vt 0.934734 0.000000
vt 0.700704 0.001995
vt 0.890550 0.000000
vt 0.687198 0.008349
vt 0.750000 0.000000
vt 0.453494 0.008791
vt 0.500000 0.000000
vt 0.450704 0.009830
vt 0.493878 0.000000
vt 0.206962 0.015125
vt 0.250000 0.000000
vt 0.384364 0.025113
vt 0.328125 0.000000
vt 0.442127 0.023826
vt 0.411458 0.000000
vt 0.050934 0.009683
vt 0.000000 0.000000
vt 0.700704 0.001995
vt 0.890550 0.000000
vt 0.453494 0.008790
vt 0.500000 0.000000
vt 0.450704 0.009830
vt 0.493879 0.000000
vt 0.687198 0.008349
vt 0.750000 0.000000
vt 0.050934 0.009682
vt 0.000000 0.000000
vt 0.442127 0.023826
vt 0.411458 0.000000
vt 0.010711 0.880468
vt 0.000000 1.000000
vt 0.010517 0.927764
vt 0.000000 0.000000
vt 0.038150 0.927786
vt 1.000000 0.000000
vt 0.038337 0.880496
vt 1.000000 1.000000
vt 0.010711 0.880468
vt 0.000000 1.000000
vt 0.000000 0.000000
vt 0.010517 0.927764
vt 0.038150 0.927786
vt 1.000000 0.000000
vt 0.038337 0.880496
vt 1.000000 1.000000
vt 0.974239 0.919705
vt 1.000000 0.000000
vt 0.974186 0.872571
vt 1.000000 1.000000
vt 0.950704 0.872553
vt 0.525552 1.000000
vt 0.950704 0.919691
vt 0.524679 0.000000
vt 0.974239 0.919705
vt 1.000000 0.000000
vt 0.974186 0.872571
vt 1.000000 1.000000
vt 0.950704 0.872553
vt 0.525552 1.000000
vt 0.950704 0.919691
vt 0.524679 0.000000
vt 0.798414 0.872435
vt 0.000000 1.000000
vt 0.798297 0.919599
vt 0.000000 0.000000
vt 0.798414 0.872435
vt 0.000000 1.000000
vt 0.798297 0.919599
vt 0.000000 0.000000
vt 0.052397 0.009734
vt 0.002344 0.000000
vt 0.000000 0.610823
vt 0.429488 0.024108
vt 0.393224 0.000000
vt 1.000000 0.600950
vt 0.429304 0.056090
vt 1.000000 0.539122
vt 0.052330 0.056090
vt 0.000000 0.523192
vt 0.051922 0.332860
vt 0.000000 0.000000
vt 1.000000 0.000000
vt 0.427703 0.334959
vt 0.250000 0.000000
vt 0.409891 0.607768
vt 0.002344 0.000000
vt 0.000000 0.610823
vt 0.328125 0.000000
vt 0.880330 0.597008
vt 0.393224 0.000000
vt 1.000000 0.600950
vt 0.047885 0.996901
vt 0.000000 0.941087
vt 0.000000 0.065064
vt 0.450704 0.427606
vt 0.885626 1.000000
vt 0.052203 0.424975
vt 0.000000 1.000000
vt 0.677614 0.428357
vt 1.000000 1.000000
vt 1.000000 0.085970
vt 0.667713 0.988014
vt 0.994091 1.000000
vt 0.000000 0.941088
vt 0.000000 0.065064
vt 0.000000 1.000000
vt 0.005994 0.078171
vt 0.994091 1.000000
vt 1.000000 0.085970
s 0
f 2/2/1 10/11/1 4/4/1
f 9/9/1 11/13/1 1/1/1
f 6/6/2 16/23/2 14/19/2
f 7/7/2 5/5/2 15/21/2
f 4/4/3 6/6/3 2/2/3
f 3/3/4 5/5/4 7/7/4
f 3/3/5 8/8/5 4/4/5
f 2/2/6 5/5/6 1/1/6
f 11/14/7 14/20/7 12/16/7
f 12/16/4 16/24/4 10/12/4
f 11/14/8 15/22/8 13/18/8
f 9/10/9 16/24/9 15/22/9
f 90/133/1 24/32/1 89/131/1
f 93/139/2 28/36/2 94/141/2
f 23/31/10 39/47/10 35/43/10
f 63/79/11 25/33/11 64/82/11
f 21/29/12 41/49/12 37/45/12
f 24/32/6 33/41/6 30/38/6
f 27/35/6 55/63/6 56/65/6
f 31/39/6 58/69/6 57/67/6
f 30/38/9 34/42/9 31/39/9
f 29/37/13 26/34/13 21/29/13
f 32/40/11 65/83/11 66/85/11
f 27/35/2 81/115/2 39/47/2
f 84/121/2 83/119/2 111/177/2
f 34/42/2 45/53/2 114/184/2
f 97/147/2 34/42/2 98/149/2
f 87/127/1 88/129/1 61/75/1
f 23/31/1 85/123/1 86/126/1
f 31/39/1 57/67/1 62/77/1
f 100/153/1 31/39/1 99/151/1
f 53/61/1 51/59/1 67/87/1
f 51/59/1 54/62/1 52/60/1
f 68/89/1 49/57/1 69/91/1
f 49/57/1 52/60/1 50/58/1
f 73/99/1 49/57/1 72/97/1
f 49/57/1 35/43/1 36/44/1
f 32/40/2 75/103/2 48/56/2
f 46/54/2 47/55/2 48/56/2
f 46/54/2 75/103/2 78/109/2
f 44/52/2 45/53/2 46/54/2
f 64/82/2 25/33/2 40/48/2
f 44/52/2 77/107/2 80/113/2
f 39/47/2 43/51/2 105/165/2
f 24/32/14 42/50/14 28/36/14
f 38/46/15 41/49/15 42/50/15
f 18/26/10 40/48/10 25/33/10
f 35/43/10 40/48/10 36/44/10
f 48/56/2 26/34/2 32/40/2
f 48/56/2 42/50/2 41/49/2
f 21/29/1 53/61/1 29/37/1
f 53/61/1 38/46/1 54/62/1
f 58/70/16 62/78/16 57/68/16
f 61/76/17 117/191/17 116/189/17
f 60/74/9 62/78/9 118/193/9
f 108/171/18 71/96/18 74/102/18
f 77/108/19 76/106/19 69/92/19
f 72/98/20 107/169/20 109/173/20
f 68/90/21 76/106/21 78/110/21
f 110/175/22 80/114/22 73/100/22
f 79/112/23 63/80/23 64/81/23
f 75/104/24 66/86/24 67/88/24
f 81/116/6 88/130/6 84/122/6
f 82/118/5 87/128/5 86/125/5
f 83/120/4 88/130/4 87/128/4
f 85/124/8 82/118/8 86/125/8
f 91/136/6 94/142/6 95/144/6
f 92/138/5 98/150/5 96/146/5
f 90/134/4 93/140/4 94/142/4
f 99/152/8 98/150/8 100/154/8
f 20/28/2 110/176/2 109/174/2
f 20/28/25 105/166/25 106/167/25
f 20/28/26 106/167/26 103/162/26
f 104/164/3 105/166/3 17/25/3
f 19/27/2 117/192/2 118/194/2
f 22/30/27 114/185/27 112/181/27
f 114/185/26 118/194/26 115/186/26
f 113/183/15 116/190/15 19/27/15
f 2/2/1 12/15/1 10/11/1
f 12/15/1 2/2/1 11/13/1
f 2/2/1 1/1/1 11/13/1
f 3/3/1 4/4/1 9/9/1
f 4/4/1 10/11/1 9/9/1
f 3/3/1 9/9/1 1/1/1
f 6/6/2 8/8/2 16/23/2
f 15/21/2 16/23/2 8/8/2
f 5/5/2 6/6/2 13/17/2
f 6/6/2 14/19/2 13/17/2
f 15/21/2 8/8/2 7/7/2
f 5/5/2 13/17/2 15/21/2
f 4/4/3 8/8/3 6/6/3
f 3/3/4 1/1/4 5/5/4
f 3/3/5 7/7/5 8/8/5
f 2/2/6 6/6/6 5/5/6
f 11/14/7 13/18/7 14/20/7
f 12/16/4 14/20/4 16/24/4
f 11/14/8 9/10/8 15/22/8
f 9/10/9 10/12/9 16/24/9
f 90/133/1 91/135/1 54/62/1
f 54/62/1 38/46/1 90/133/1
f 38/46/1 24/32/1 90/133/1
f 24/32/1 30/38/1 89/131/1
f 30/38/1 92/137/1 89/131/1
f 93/139/2 96/145/2 33/41/2
f 28/36/2 42/50/2 94/141/2
f 42/50/2 47/55/2 94/141/2
f 47/55/2 95/143/2 94/141/2
f 93/139/2 33/41/2 28/36/2
f 23/31/10 27/35/10 39/47/10
f 63/79/11 18/26/11 25/33/11
f 21/29/12 26/34/12 41/49/12
f 24/32/6 28/36/6 33/41/6
f 27/35/6 23/31/6 55/63/6
f 31/39/6 34/42/6 58/69/6
f 30/38/9 33/41/9 34/42/9
f 29/37/13 32/40/13 26/34/13
f 32/40/11 29/37/11 65/83/11
f 27/35/2 82/117/2 81/115/2
f 112/180/2 43/51/2 113/182/2
f 43/51/2 39/47/2 113/182/2
f 39/47/2 81/115/2 113/182/2
f 81/115/2 84/121/2 113/182/2
f 83/119/2 82/117/2 111/177/2
f 82/117/2 27/35/2 111/177/2
f 111/177/2 27/35/2 56/65/2
f 111/177/2 113/182/2 84/121/2
f 59/71/2 58/69/2 34/42/2
f 45/53/2 43/51/2 114/184/2
f 43/51/2 112/180/2 114/184/2
f 114/184/2 115/187/2 59/71/2
f 59/71/2 34/42/2 114/184/2
f 97/147/2 95/143/2 47/55/2
f 47/55/2 45/53/2 97/147/2
f 45/53/2 34/42/2 97/147/2
f 34/42/2 33/41/2 98/149/2
f 33/41/2 96/145/2 98/149/2
f 88/129/1 85/123/1 35/43/1
f 35/43/1 50/58/1 88/129/1
f 50/58/1 60/73/1 88/129/1
f 61/75/1 55/63/1 87/127/1
f 55/63/1 23/31/1 86/126/1
f 60/73/1 61/75/1 88/129/1
f 55/63/1 86/126/1 87/127/1
f 23/31/1 35/43/1 85/123/1
f 62/77/1 60/73/1 50/58/1
f 50/58/1 52/60/1 62/77/1
f 52/60/1 31/39/1 62/77/1
f 100/153/1 92/137/1 30/38/1
f 31/39/1 52/60/1 99/151/1
f 52/60/1 54/62/1 99/151/1
f 54/62/1 91/135/1 99/151/1
f 100/153/1 30/38/1 31/39/1
f 67/87/1 65/83/1 29/37/1
f 29/37/1 53/61/1 67/87/1
f 51/59/1 53/61/1 54/62/1
f 68/89/1 67/87/1 51/59/1
f 51/59/1 49/57/1 68/89/1
f 49/57/1 70/93/1 69/91/1
f 49/57/1 51/59/1 52/60/1
f 73/99/1 70/93/1 49/57/1
f 36/44/1 18/26/1 63/79/1
f 74/101/1 71/95/1 36/44/1
f 71/95/1 72/97/1 49/57/1
f 36/44/1 71/95/1 49/57/1
f 36/44/1 63/79/1 74/101/1
f 49/57/1 50/58/1 35/43/1
f 66/85/2 75/103/2 32/40/2
f 75/103/2 46/54/2 48/56/2
f 46/54/2 45/53/2 47/55/2
f 78/109/2 76/105/2 44/52/2
f 76/105/2 77/107/2 44/52/2
f 44/52/2 46/54/2 78/109/2
f 44/52/2 43/51/2 45/53/2
f 40/48/2 104/163/2 64/82/2
f 104/163/2 101/155/2 79/111/2
f 79/111/2 64/82/2 104/163/2
f 80/113/2 102/158/2 103/161/2
f 103/161/2 44/52/2 80/113/2
f 105/165/2 104/163/2 40/48/2
f 43/51/2 44/52/2 106/168/2
f 44/52/2 103/161/2 106/168/2
f 105/165/2 40/48/2 39/47/2
f 43/51/2 106/168/2 105/165/2
f 24/32/14 38/46/14 42/50/14
f 38/46/15 37/45/15 41/49/15
f 18/26/10 36/44/10 40/48/10
f 35/43/10 39/47/10 40/48/10
f 48/56/2 41/49/2 26/34/2
f 48/56/2 47/55/2 42/50/2
f 21/29/1 37/45/1 53/61/1
f 53/61/1 37/45/1 38/46/1
f 58/70/16 59/72/16 62/78/16
f 111/178/17 56/66/17 116/189/17
f 56/66/17 55/64/17 116/189/17
f 55/64/17 61/76/17 116/189/17
f 117/191/9 61/76/9 60/74/9
f 62/78/9 59/72/9 118/193/9
f 59/72/9 115/188/9 118/193/9
f 118/193/9 117/191/9 60/74/9
f 108/171/18 107/169/18 71/96/18
f 74/102/18 79/112/18 108/171/18
f 79/112/18 101/156/18 108/171/18
f 69/92/19 70/94/19 77/108/19
f 70/94/19 73/100/19 77/108/19
f 73/100/19 80/114/19 77/108/19
f 72/98/20 71/96/20 107/169/20
f 68/90/21 69/92/21 76/106/21
f 110/175/22 102/159/22 80/114/22
f 73/100/22 72/98/22 110/175/22
f 72/98/22 109/173/22 110/175/22
f 79/112/23 74/102/23 63/80/23
f 66/86/24 65/84/24 67/88/24
f 67/88/24 68/90/24 78/110/24
f 78/110/24 75/104/24 67/88/24
f 81/116/6 85/124/6 88/130/6
f 82/118/5 83/120/5 87/128/5
f 83/120/4 84/122/4 88/130/4
f 85/124/8 81/116/8 82/118/8
f 97/148/6 99/152/6 91/136/6
f 91/136/6 90/134/6 94/142/6
f 95/144/6 97/148/6 91/136/6
f 96/146/5 93/140/5 89/132/5
f 92/138/5 100/154/5 98/150/5
f 96/146/5 89/132/5 92/138/5
f 90/134/4 89/132/4 93/140/4
f 99/152/8 97/148/8 98/150/8
f 109/174/2 107/170/2 20/28/2
f 107/170/2 108/172/2 17/25/2
f 20/28/2 107/170/2 17/25/2
f 20/28/25 17/25/25 105/166/25
f 103/162/26 102/160/26 110/176/26
f 110/176/26 20/28/26 103/162/26
f 17/25/3 108/172/3 104/164/3
f 108/172/3 101/157/3 104/164/3
f 118/194/2 22/30/2 19/27/2
f 19/27/2 116/190/2 117/192/2
f 112/181/27 113/183/27 19/27/27
f 19/27/27 22/30/27 112/181/27
f 114/185/26 22/30/26 118/194/26
f 113/183/15 111/179/15 116/190/15
